<?xml version="1.0" encoding="utf-8"?>
<!-- Generator: Adobe Illustrator 16.0.0, SVG Export Plug-In . SVG Version: 6.00 Build 0)  -->
<!DOCTYPE svg PUBLIC "-//W3C//DTD SVG 1.1//EN" "http://www.w3.org/Graphics/SVG/1.1/DTD/svg11.dtd">
<svg version="1.1" id="Layer_1" xmlns="http://www.w3.org/2000/svg" xmlns:xlink="http://www.w3.org/1999/xlink" x="0px" y="0px"
	 width="128px" height="38px" viewBox="0 0 128 38" enable-background="new 0 0 128 38" xml:space="preserve">
<path fill="#646569" d="M26.527,25.518c-2.582,0-4.682,2.101-4.682,4.682s2.101,4.679,4.682,4.679c2.58,0,4.68-2.098,4.68-4.679
	S29.106,25.518,26.527,25.518 M26.527,38c-4.302,0-7.803-3.499-7.803-7.801c0-4.304,3.501-7.803,7.803-7.803
	c4.301,0,7.801,3.499,7.801,7.803C34.328,34.501,30.828,38,26.527,38"/>
<path fill="#646569" d="M15.604,37.371h-3.121v-7.174c0-2.582-2.1-4.68-4.68-4.68c-2.582,0-4.682,2.098-4.682,4.68v7.174H0v-7.174
	c0-4.302,3.5-7.801,7.802-7.801s7.801,3.499,7.801,7.801V37.371z"/>
<path fill="#646569" d="M84.26,37.371h-3.122v-7.174c0-2.582-2.1-4.68-4.679-4.68c-2.582,0-4.682,2.098-4.682,4.68v7.174h-3.121
	v-7.174c0-4.302,3.501-7.801,7.803-7.801s7.801,3.499,7.801,7.801V37.371z"/>
<path fill="#646569" d="M95.182,38c-4.302,0-7.801-3.499-7.801-7.801v-7.174h3.12v7.174c0,2.579,2.1,4.679,4.681,4.679
	c2.582,0,4.682-2.1,4.682-4.679v-7.174h3.122v7.174C102.985,34.501,99.483,38,95.182,38"/>
<path fill="#646569" d="M53.053,22.396c-1.865,0-3.538,0.826-4.682,2.128c-1.145-1.302-2.816-2.128-4.68-2.128
	c-3.443,0-6.242,2.801-6.242,6.243v8.731h3.12V28.64c0-1.723,1.401-3.122,3.123-3.122c1.72,0,3.12,1.399,3.12,3.122v8.731h3.121
	V28.64c0-1.723,1.4-3.122,3.121-3.122c1.72,0,3.12,1.399,3.12,3.122v8.731h3.121V28.64C59.294,25.197,56.494,22.396,53.053,22.396"
	/>
<path fill="#646569" d="M121.708,22.396c-1.863,0-3.536,0.826-4.682,2.128c-1.145-1.302-2.815-2.128-4.679-2.128
	c-3.442,0-6.243,2.801-6.243,6.243v8.731h3.121V28.64c0-1.723,1.399-3.122,3.122-3.122c1.718,0,3.119,1.399,3.119,3.122v8.731h3.122
	V28.64c0-1.723,1.399-3.122,3.119-3.122c1.723,0,3.122,1.399,3.122,3.122v8.731h3.119V28.64
	C127.949,25.197,125.15,22.396,121.708,22.396"/>
<rect x="62.415" y="23.025" fill="#646569" width="3.121" height="14.346"/>
<rect x="62.416" y="1.319" fill="#00B3E3" width="3.12" height="7.487"/>
<rect x="87.381" y="1.319" fill="#00B3E3" width="3.12" height="7.487"/>
<rect x="99.865" y="1.319" fill="#00B3E3" width="3.12" height="7.487"/>
<rect y="8.807" fill="#00B3E3" width="3.121" height="7.487"/>
<rect x="12.482" y="8.807" fill="#00B3E3" width="3.121" height="7.487"/>
<rect x="37.448" y="8.807" fill="#00B3E3" width="3.121" height="7.487"/>
<rect x="46.815" y="8.807" fill="#00B3E3" width="3.121" height="7.487"/>
<rect x="56.172" y="8.807" fill="#00B3E3" width="3.121" height="7.487"/>
<rect x="81.141" y="8.807" fill="#00B3E3" width="3.119" height="7.487"/>
<rect x="68.656" y="8.807" fill="#00B3E3" width="3.121" height="7.487"/>
<rect x="106.104" y="8.807" fill="#00B3E3" width="3.121" height="7.487"/>
<rect x="115.467" y="8.807" fill="#00B3E3" width="3.12" height="7.487"/>
<rect x="124.83" y="8.807" fill="#00B3E3" width="3.119" height="7.487"/>
</svg>
